<svg width="109" height="88" viewBox="0 0 109 88" fill="none" xmlns="http://www.w3.org/2000/svg">
<g clip-path="url(#clip0_3:5)">
<mask id="path-1-outside-1_3:5" maskUnits="userSpaceOnUse" x="-2.16702" y="41.7325" width="113" height="36" fill="black">
<rect fill="white" x="-2.16702" y="41.7325" width="113" height="36"/>
<path fill-rule="evenodd" clip-rule="evenodd" d="M95.7612 50.9422C95.172 50.9422 94.6734 50.7385 94.2654 50.3311C93.8575 49.9237 93.6535 49.4258 93.6535 48.8373C93.6535 48.2489 93.8575 47.751 94.2654 47.3436C94.6734 46.9362 95.172 46.7325 95.7612 46.7325C96.3278 46.7325 96.8038 46.9362 97.189 47.3436C97.597 47.751 97.801 48.2489 97.801 48.8373C97.801 49.4258 97.597 49.9237 97.189 50.3311C96.8038 50.7385 96.3278 50.9422 95.7612 50.9422ZM97.257 53.9637V72.568H94.1634V53.9637H97.257ZM20.3288 51.6552C19.5583 53.081 19.173 54.7446 19.173 56.6457C19.173 58.5243 19.5583 60.1991 20.3288 61.6702C21.0994 63.1414 22.1533 64.2844 23.4904 65.0991C24.8276 65.9139 26.3234 66.3213 27.9779 66.3213C29.587 66.3213 30.9922 65.9705 32.1934 65.2689C33.4173 64.5446 34.3351 63.6393 34.9471 62.5529V66.0158H38.0747V47.4115H34.9471V50.8064C34.3578 49.7427 33.4626 48.86 32.2614 48.1584C31.0602 47.4567 29.6437 47.1059 28.0119 47.1059C26.3574 47.1059 24.8503 47.502 23.4904 48.2942C22.1533 49.0863 21.0994 50.2066 20.3288 51.6552ZM34.0972 53.0131C34.6638 54.0543 34.9471 55.2764 34.9471 56.6797C34.9471 58.0829 34.6638 59.3164 34.0972 60.3802C33.5306 61.4213 32.76 62.2248 31.7855 62.7906C30.8335 63.3338 29.7797 63.6054 28.6238 63.6054C27.4679 63.6054 26.4141 63.3338 25.4622 62.7906C24.5103 62.2248 23.7511 61.4213 23.1845 60.3802C22.6179 59.3164 22.3346 58.0716 22.3346 56.6457C22.3346 55.2425 22.6179 54.0203 23.1845 52.9792C23.7511 51.9381 24.5103 51.1459 25.4622 50.6027C26.4141 50.0595 27.4679 49.7879 28.6238 49.7879C29.7797 49.7879 30.8335 50.0708 31.7855 50.6367C32.76 51.1799 33.5306 51.972 34.0972 53.0131ZM5.92659 64.3523L13.2357 72.568H17.4512L8.64625 63.2319L17.4172 53.9637H13.0997L5.92659 62.2134V47.4454H2.83298V72.568H5.92659V64.3523ZM68.1196 53.9637L62.3063 72.568H59.1107L54.6232 57.8L50.1358 72.568H46.9402L41.0929 53.9637H44.2545L48.538 69.5805L53.1614 53.9637H56.323L60.8445 69.6144L65.0599 53.9637H68.1196ZM71.9803 51.6552C71.2098 53.081 70.8245 54.7446 70.8245 56.6457C70.8245 58.5243 71.2098 60.1991 71.9803 61.6702C72.7509 63.1414 73.8048 64.2844 75.1419 65.0991C76.4791 65.9139 77.9749 66.3213 79.6294 66.3213C81.2385 66.3213 82.6437 65.9705 83.8449 65.2689C85.0687 64.5446 85.9866 63.6393 86.5985 62.5529V66.0158H89.7261V47.4115H86.5985V50.8064C86.0093 49.7427 85.114 48.86 83.9128 48.1584C82.7117 47.4567 81.2952 47.1059 79.6634 47.1059C78.0089 47.1059 76.5018 47.502 75.1419 48.2942C73.8048 49.0863 72.7509 50.2066 71.9803 51.6552ZM85.7486 53.0131C86.3152 54.0543 86.5985 55.2764 86.5985 56.6797C86.5985 58.0829 86.3152 59.3164 85.7486 60.3802C85.182 61.4213 84.4115 62.2248 83.4369 62.7906C82.485 63.3338 81.4312 63.6054 80.2753 63.6054C79.1194 63.6054 78.0656 63.3338 77.1137 62.7906C76.1618 62.2248 75.4026 61.4213 74.836 60.3802C74.2694 59.3164 73.9861 58.0716 73.9861 56.6457C73.9861 55.2425 74.2694 54.0203 74.836 52.9792C75.4026 51.9381 76.1618 51.1459 77.1137 50.6027C78.0656 50.0595 79.1194 49.7879 80.2753 49.7879C81.4312 49.7879 82.485 50.0708 83.4369 50.6367C84.4115 51.1799 85.182 51.972 85.7486 53.0131ZM102.631 50.3311C103.039 50.7385 103.538 50.9422 104.127 50.9422C104.694 50.9422 105.17 50.7385 105.555 50.3311C105.963 49.9237 106.167 49.4258 106.167 48.8373C106.167 48.2489 105.963 47.751 105.555 47.3436C105.17 46.9362 104.694 46.7325 104.127 46.7325C103.538 46.7325 103.039 46.9362 102.631 47.3436C102.224 47.751 102.02 48.2489 102.02 48.8373C102.02 49.4258 102.224 49.9237 102.631 50.3311ZM105.623 72.568V53.9637H102.529V72.568H105.623Z"/>
</mask>
<path fill-rule="evenodd" clip-rule="evenodd" d="M95.7612 50.9422C95.172 50.9422 94.6734 50.7385 94.2654 50.3311C93.8575 49.9237 93.6535 49.4258 93.6535 48.8373C93.6535 48.2489 93.8575 47.751 94.2654 47.3436C94.6734 46.9362 95.172 46.7325 95.7612 46.7325C96.3278 46.7325 96.8038 46.9362 97.189 47.3436C97.597 47.751 97.801 48.2489 97.801 48.8373C97.801 49.4258 97.597 49.9237 97.189 50.3311C96.8038 50.7385 96.3278 50.9422 95.7612 50.9422ZM97.257 53.9637V72.568H94.1634V53.9637H97.257ZM20.3288 51.6552C19.5583 53.081 19.173 54.7446 19.173 56.6457C19.173 58.5243 19.5583 60.1991 20.3288 61.6702C21.0994 63.1414 22.1533 64.2844 23.4904 65.0991C24.8276 65.9139 26.3234 66.3213 27.9779 66.3213C29.587 66.3213 30.9922 65.9705 32.1934 65.2689C33.4173 64.5446 34.3351 63.6393 34.9471 62.5529V66.0158H38.0747V47.4115H34.9471V50.8064C34.3578 49.7427 33.4626 48.86 32.2614 48.1584C31.0602 47.4567 29.6437 47.1059 28.0119 47.1059C26.3574 47.1059 24.8503 47.502 23.4904 48.2942C22.1533 49.0863 21.0994 50.2066 20.3288 51.6552ZM34.0972 53.0131C34.6638 54.0543 34.9471 55.2764 34.9471 56.6797C34.9471 58.0829 34.6638 59.3164 34.0972 60.3802C33.5306 61.4213 32.76 62.2248 31.7855 62.7906C30.8335 63.3338 29.7797 63.6054 28.6238 63.6054C27.4679 63.6054 26.4141 63.3338 25.4622 62.7906C24.5103 62.2248 23.7511 61.4213 23.1845 60.3802C22.6179 59.3164 22.3346 58.0716 22.3346 56.6457C22.3346 55.2425 22.6179 54.0203 23.1845 52.9792C23.7511 51.9381 24.5103 51.1459 25.4622 50.6027C26.4141 50.0595 27.4679 49.7879 28.6238 49.7879C29.7797 49.7879 30.8335 50.0708 31.7855 50.6367C32.76 51.1799 33.5306 51.972 34.0972 53.0131ZM5.92659 64.3523L13.2357 72.568H17.4512L8.64625 63.2319L17.4172 53.9637H13.0997L5.92659 62.2134V47.4454H2.83298V72.568H5.92659V64.3523ZM68.1196 53.9637L62.3063 72.568H59.1107L54.6232 57.8L50.1358 72.568H46.9402L41.0929 53.9637H44.2545L48.538 69.5805L53.1614 53.9637H56.323L60.8445 69.6144L65.0599 53.9637H68.1196ZM71.9803 51.6552C71.2098 53.081 70.8245 54.7446 70.8245 56.6457C70.8245 58.5243 71.2098 60.1991 71.9803 61.6702C72.7509 63.1414 73.8048 64.2844 75.1419 65.0991C76.4791 65.9139 77.9749 66.3213 79.6294 66.3213C81.2385 66.3213 82.6437 65.9705 83.8449 65.2689C85.0687 64.5446 85.9866 63.6393 86.5985 62.5529V66.0158H89.7261V47.4115H86.5985V50.8064C86.0093 49.7427 85.114 48.86 83.9128 48.1584C82.7117 47.4567 81.2952 47.1059 79.6634 47.1059C78.0089 47.1059 76.5018 47.502 75.1419 48.2942C73.8048 49.0863 72.7509 50.2066 71.9803 51.6552ZM85.7486 53.0131C86.3152 54.0543 86.5985 55.2764 86.5985 56.6797C86.5985 58.0829 86.3152 59.3164 85.7486 60.3802C85.182 61.4213 84.4115 62.2248 83.4369 62.7906C82.485 63.3338 81.4312 63.6054 80.2753 63.6054C79.1194 63.6054 78.0656 63.3338 77.1137 62.7906C76.1618 62.2248 75.4026 61.4213 74.836 60.3802C74.2694 59.3164 73.9861 58.0716 73.9861 56.6457C73.9861 55.2425 74.2694 54.0203 74.836 52.9792C75.4026 51.9381 76.1618 51.1459 77.1137 50.6027C78.0656 50.0595 79.1194 49.7879 80.2753 49.7879C81.4312 49.7879 82.485 50.0708 83.4369 50.6367C84.4115 51.1799 85.182 51.972 85.7486 53.0131ZM102.631 50.3311C103.039 50.7385 103.538 50.9422 104.127 50.9422C104.694 50.9422 105.17 50.7385 105.555 50.3311C105.963 49.9237 106.167 49.4258 106.167 48.8373C106.167 48.2489 105.963 47.751 105.555 47.3436C105.17 46.9362 104.694 46.7325 104.127 46.7325C103.538 46.7325 103.039 46.9362 102.631 47.3436C102.224 47.751 102.02 48.2489 102.02 48.8373C102.02 49.4258 102.224 49.9237 102.631 50.3311ZM105.623 72.568V53.9637H102.529V72.568H105.623Z" fill="white"/>
<path fill-rule="evenodd" clip-rule="evenodd" d="M95.7612 50.9422C95.172 50.9422 94.6734 50.7385 94.2654 50.3311C93.8575 49.9237 93.6535 49.4258 93.6535 48.8373C93.6535 48.2489 93.8575 47.751 94.2654 47.3436C94.6734 46.9362 95.172 46.7325 95.7612 46.7325C96.3278 46.7325 96.8038 46.9362 97.189 47.3436C97.597 47.751 97.801 48.2489 97.801 48.8373C97.801 49.4258 97.597 49.9237 97.189 50.3311C96.8038 50.7385 96.3278 50.9422 95.7612 50.9422ZM97.257 53.9637V72.568H94.1634V53.9637H97.257ZM20.3288 51.6552C19.5583 53.081 19.173 54.7446 19.173 56.6457C19.173 58.5243 19.5583 60.1991 20.3288 61.6702C21.0994 63.1414 22.1533 64.2844 23.4904 65.0991C24.8276 65.9139 26.3234 66.3213 27.9779 66.3213C29.587 66.3213 30.9922 65.9705 32.1934 65.2689C33.4173 64.5446 34.3351 63.6393 34.9471 62.5529V66.0158H38.0747V47.4115H34.9471V50.8064C34.3578 49.7427 33.4626 48.86 32.2614 48.1584C31.0602 47.4567 29.6437 47.1059 28.0119 47.1059C26.3574 47.1059 24.8503 47.502 23.4904 48.2942C22.1533 49.0863 21.0994 50.2066 20.3288 51.6552ZM34.0972 53.0131C34.6638 54.0543 34.9471 55.2764 34.9471 56.6797C34.9471 58.0829 34.6638 59.3164 34.0972 60.3802C33.5306 61.4213 32.76 62.2248 31.7855 62.7906C30.8335 63.3338 29.7797 63.6054 28.6238 63.6054C27.4679 63.6054 26.4141 63.3338 25.4622 62.7906C24.5103 62.2248 23.7511 61.4213 23.1845 60.3802C22.6179 59.3164 22.3346 58.0716 22.3346 56.6457C22.3346 55.2425 22.6179 54.0203 23.1845 52.9792C23.7511 51.9381 24.5103 51.1459 25.4622 50.6027C26.4141 50.0595 27.4679 49.7879 28.6238 49.7879C29.7797 49.7879 30.8335 50.0708 31.7855 50.6367C32.76 51.1799 33.5306 51.972 34.0972 53.0131ZM5.92659 64.3523L13.2357 72.568H17.4512L8.64625 63.2319L17.4172 53.9637H13.0997L5.92659 62.2134V47.4454H2.83298V72.568H5.92659V64.3523ZM68.1196 53.9637L62.3063 72.568H59.1107L54.6232 57.8L50.1358 72.568H46.9402L41.0929 53.9637H44.2545L48.538 69.5805L53.1614 53.9637H56.323L60.8445 69.6144L65.0599 53.9637H68.1196ZM71.9803 51.6552C71.2098 53.081 70.8245 54.7446 70.8245 56.6457C70.8245 58.5243 71.2098 60.1991 71.9803 61.6702C72.7509 63.1414 73.8048 64.2844 75.1419 65.0991C76.4791 65.9139 77.9749 66.3213 79.6294 66.3213C81.2385 66.3213 82.6437 65.9705 83.8449 65.2689C85.0687 64.5446 85.9866 63.6393 86.5985 62.5529V66.0158H89.7261V47.4115H86.5985V50.8064C86.0093 49.7427 85.114 48.86 83.9128 48.1584C82.7117 47.4567 81.2952 47.1059 79.6634 47.1059C78.0089 47.1059 76.5018 47.502 75.1419 48.2942C73.8048 49.0863 72.7509 50.2066 71.9803 51.6552ZM85.7486 53.0131C86.3152 54.0543 86.5985 55.2764 86.5985 56.6797C86.5985 58.0829 86.3152 59.3164 85.7486 60.3802C85.182 61.4213 84.4115 62.2248 83.4369 62.7906C82.485 63.3338 81.4312 63.6054 80.2753 63.6054C79.1194 63.6054 78.0656 63.3338 77.1137 62.7906C76.1618 62.2248 75.4026 61.4213 74.836 60.3802C74.2694 59.3164 73.9861 58.0716 73.9861 56.6457C73.9861 55.2425 74.2694 54.0203 74.836 52.9792C75.4026 51.9381 76.1618 51.1459 77.1137 50.6027C78.0656 50.0595 79.1194 49.7879 80.2753 49.7879C81.4312 49.7879 82.485 50.0708 83.4369 50.6367C84.4115 51.1799 85.182 51.972 85.7486 53.0131ZM102.631 50.3311C103.039 50.7385 103.538 50.9422 104.127 50.9422C104.694 50.9422 105.17 50.7385 105.555 50.3311C105.963 49.9237 106.167 49.4258 106.167 48.8373C106.167 48.2489 105.963 47.751 105.555 47.3436C105.17 46.9362 104.694 46.7325 104.127 46.7325C103.538 46.7325 103.039 46.9362 102.631 47.3436C102.224 47.751 102.02 48.2489 102.02 48.8373C102.02 49.4258 102.224 49.9237 102.631 50.3311ZM105.623 72.568V53.9637H102.529V72.568H105.623Z" stroke="#F67E93" stroke-width="8.49351" stroke-linecap="round" stroke-linejoin="round" mask="url(#path-1-outside-1_3:5)"/>
<path d="M59.4926 0C58.7017 0 58.1154 0.372818 57.7386 0.70728C57.3618 1.04174 57.1165 1.39295 56.892 1.75162C56.4431 2.46898 56.1078 3.25248 55.8186 4.02266C55.4607 4.97571 55.3918 5.32279 55.2321 5.89585C53.2034 6.13089 51.4211 6.35172 50.2854 6.78547C49.3159 7.15573 48.7109 7.70728 48.039 8.22766C46.6642 7.75179 45.559 7.1345 44.7412 6.41525C44.2615 5.9934 43.832 5.56499 43.3192 5.15541C42.8063 4.74583 42.1156 4.24368 41.0782 4.24368C40.1103 4.24368 39.1045 4.94462 38.6824 5.64719C38.2603 6.34976 38.1243 7.0288 38.0184 7.76903C37.8066 9.2495 37.8192 11.0347 37.8192 13.1565C37.8192 14.5239 38.0998 17.263 38.6381 20.9366C39.1764 24.6102 39.9788 29.0826 41.0616 33.4079C42.1444 37.7332 43.485 41.8959 45.2171 45.067C46.0831 46.6526 47.0425 48.0068 48.2548 49.0013C49.4671 49.9957 51.0753 50.6058 52.7145 50.3329C55.2594 49.9094 57.1645 48.5059 57.9655 46.6418C58.7664 44.7777 58.6066 42.7731 58.1868 40.851C57.3472 37.0068 55.2627 33.0357 54.6732 31.2695C54.5971 31.0402 54.4764 30.828 54.318 30.6453C54.1597 30.4625 53.9668 30.3127 53.7505 30.2044C53.5341 30.0961 53.2986 30.0315 53.0572 30.0142C52.8158 29.9969 52.5734 30.0273 52.3438 30.1036C51.8809 30.2584 51.4985 30.5904 51.2806 31.0266C51.0627 31.4628 51.0272 31.9675 51.1818 32.4299C52.0088 34.9075 53.9182 38.5584 54.5902 41.6356C54.9263 43.1742 54.899 44.4572 54.5846 45.1886C54.2703 45.92 53.8103 46.4244 52.1057 46.7081C51.6202 46.789 51.2365 46.6917 50.5896 46.1611C49.9428 45.6305 49.1758 44.6418 48.4483 43.3099C46.9934 40.646 45.678 36.6749 44.6361 32.5128C43.5941 28.3507 42.803 23.9822 42.2789 20.4061C41.7549 16.8301 41.5043 13.911 41.5043 13.1565C41.5043 11.1648 41.5287 9.60648 41.6482 8.58683C41.8674 8.78677 42.0139 8.91511 42.3066 9.17254C43.4487 10.1771 45.1779 11.4734 47.7125 12.1122L48.6144 12.3387L49.3337 11.7475C50.3447 10.9151 50.7454 10.5497 51.6023 10.2224C52.4592 9.89515 53.9469 9.59247 56.8311 9.32726L58.1314 9.21122L58.4468 7.94585C58.4468 7.94585 58.7873 6.60441 59.2713 5.31565C59.444 4.85567 59.6262 4.50662 59.8025 4.1608C60.0731 4.40276 60.2664 4.60069 60.7265 4.92886C62.2089 5.98629 64.6579 7.15616 69.1037 7.89612C70.5984 8.1449 73.2387 9.55464 76.081 11.8635C78.9233 14.1724 82.0443 17.3237 84.9894 20.8703C90.8797 27.9636 96.0498 36.7266 97.3505 43.2215C97.4464 43.6989 97.728 44.1189 98.1336 44.3893C98.5392 44.6597 99.0356 44.7583 99.514 44.6637C99.9921 44.5679 100.413 44.2866 100.683 43.8816C100.954 43.4766 101.053 42.9808 100.958 42.5031C99.4259 34.8524 93.9723 25.9334 87.8224 18.5274C84.7474 14.8245 81.4942 11.5218 78.4049 9.0123C75.3157 6.50284 72.4671 4.72981 69.7123 4.27131C65.6592 3.59671 63.8587 2.64474 62.8623 1.93397C62.3641 1.57858 62.0673 1.27795 61.6505 0.917254C61.2338 0.556559 60.4605 0 59.4926 0ZM75.334 24.0696C74.8513 24.0015 74.3613 24.1272 73.9713 24.4193C73.5813 24.7114 73.3232 25.146 73.2536 25.6279C72.6793 29.6428 74.2198 33.875 74.8693 37.2759C75.194 38.9763 75.2809 40.4288 75.0684 41.293C74.8559 42.1572 74.6409 42.5154 73.4804 42.8955C73.2106 42.9838 73.1857 42.9639 73.0101 42.8788C72.8345 42.7938 72.5204 42.5447 72.1801 42.0665C71.4995 41.1101 70.7959 39.3471 70.2767 37.4029C69.2384 33.5144 68.816 28.7137 68.816 27.6667C68.8148 27.1796 68.6201 26.7128 68.2746 26.3689C67.9292 26.025 67.4612 25.832 66.9734 25.8323C66.4856 25.832 66.0176 26.025 65.6722 26.369C65.3267 26.7129 65.1321 27.1797 65.1309 27.6668C65.1309 29.4489 65.5565 34.0209 66.7134 38.3534C67.2918 40.5196 68.0235 42.5805 69.1756 44.1995C69.7517 45.009 70.4522 45.7301 71.4 46.1887C72.3477 46.6473 73.5552 46.7456 74.6313 46.3932C76.7632 45.695 78.2001 43.9949 78.6484 42.1716C79.0967 40.3483 78.8496 38.479 78.4879 36.5852C77.7647 32.7976 76.5245 28.7336 76.8944 26.1473C76.9627 25.6652 76.8368 25.1758 76.5443 24.7864C76.2518 24.3969 75.8166 24.1392 75.334 24.0696L75.334 24.0696ZM78.9527 70.7667C78.7157 70.8154 78.4906 70.9102 78.2902 71.0458C78.0899 71.1813 77.9183 71.355 77.7852 71.5569C67.1562 87.659 41.9378 88.9959 29.8459 71.5237C29.7086 71.3249 29.5334 71.155 29.3304 71.0237C29.1273 70.8925 28.9003 70.8025 28.6624 70.7589C28.4245 70.7153 28.1803 70.7189 27.9438 70.7695C27.7073 70.8202 27.4831 70.9169 27.2841 71.0541C27.0849 71.1912 26.9148 71.3661 26.7834 71.5689C26.652 71.7717 26.5619 71.9984 26.5182 72.2359C26.4745 72.4735 26.4781 72.7174 26.5288 72.9535C26.5796 73.1897 26.6764 73.4136 26.8137 73.6124C40.3218 93.1309 68.8099 91.8368 80.8617 73.5793C80.9947 73.3775 81.0866 73.1516 81.1321 72.9144C81.1777 72.6773 81.176 72.4334 81.1272 72.1969C81.0784 71.9603 80.9834 71.7357 80.8476 71.5358C80.7119 71.3359 80.538 71.1647 80.336 71.032C79.9283 70.764 79.4308 70.6686 78.9527 70.7667Z" fill="#F67E93"/>
</g>
<defs>
<clipPath id="clip0_3:5">
<rect width="109" height="87.7662" fill="white"/>
</clipPath>
</defs>
</svg>
