<svg width="24" height="25" viewBox="0 0 24 25" fill="none" xmlns="http://www.w3.org/2000/svg">
<path d="M12 2.01624C8.82436 2.01624 6.25 4.5906 6.25 7.76624C6.25 10.9419 8.82436 13.5162 12 13.5162C15.1756 13.5162 17.75 10.9419 17.75 7.76624C17.75 4.5906 15.1756 2.01624 12 2.01624Z" fill="#FF60A2"/>
<path d="M8.26996 15.0162C7.98939 15.0162 7.79651 15.0162 7.61443 15.0339C6.38133 15.1541 5.28717 15.8756 4.69096 16.9617C4.60293 17.122 4.52697 17.2993 4.41648 17.5572L4.36678 17.6731C4.13585 18.2117 3.98127 18.5722 3.90734 18.8739C3.38798 20.9939 4.78185 23.1078 6.93502 23.4655C7.24151 23.5165 7.63373 23.5164 8.21971 23.5163H15.7803C16.3663 23.5164 16.7585 23.5165 17.065 23.4655C19.2182 23.1078 20.6121 20.9939 20.0927 18.8739C20.0188 18.5722 19.8642 18.2118 19.6333 17.6733L19.5835 17.5572C19.4731 17.2993 19.3971 17.122 19.3091 16.9617C18.7129 15.8756 17.6187 15.1541 16.3856 15.0339C16.2035 15.0162 16.0106 15.0162 15.7301 15.0162H8.26996Z" fill="#FF529B"/>
</svg>
