<svg width="24" height="25" viewBox="0 0 24 25" fill="none" xmlns="http://www.w3.org/2000/svg">
<path fill-rule="evenodd" clip-rule="evenodd" d="M12 2.01624C10.475 2.01624 9.01247 2.62204 7.93414 3.70037C6.8558 4.7787 6.25 6.24124 6.25 7.76623C6.25 7.83587 6.25949 7.90328 6.27725 7.96726C3.87706 9.28426 2.25 11.8352 2.25 14.7662C2.25 19.0464 5.71979 22.5162 10 22.5162H14C18.2802 22.5162 21.75 19.0464 21.75 14.7662C21.75 11.8352 20.1229 9.28426 17.7228 7.96726C17.7405 7.90328 17.75 7.83587 17.75 7.76624C17.75 6.24124 17.1442 4.77871 16.0659 3.70037C14.9875 2.62204 13.525 2.01624 12 2.01624ZM16.2287 7.34149C16.1312 6.37032 15.7015 5.45731 15.0052 4.76103C14.2082 3.964 13.1272 3.51624 12 3.51624C10.8728 3.51624 9.79183 3.964 8.9948 4.76103C8.29852 5.45731 7.86878 6.37031 7.77126 7.34149C8.47711 7.12991 9.22528 7.01624 10 7.01624H14C14.7747 7.01624 15.5229 7.12991 16.2287 7.34149ZM12 12.0162C11.0335 12.0162 10.25 12.7997 10.25 13.7662C10.25 14.4643 10.6588 15.067 11.25 15.3478V16.7662C11.25 17.1804 11.5858 17.5162 12 17.5162C12.4142 17.5162 12.75 17.1804 12.75 16.7662V15.3478C13.3412 15.067 13.75 14.4643 13.75 13.7662C13.75 12.7997 12.9665 12.0162 12 12.0162Z" fill="#FF529B"/>
</svg>
